Coordinates
nRows=266
nColumns=2
inDegrees=yes
endheader
time	ankle_angle_r	
3.19355	 -4.791238	
3.22681	 -4.782964	
3.26008	 -4.774432	
3.29335	 -4.767726	
3.32661	 -4.767694	
3.35988	 -4.776963	
3.39315	 -4.791002	
3.42641	 -4.801734	
3.45968	 -4.803380	
3.49294	 -4.795941	
3.52621	 -4.790301	
3.55948	 -4.800608	
3.59274	 -4.821971	
3.62601	 -4.831608	
3.65927	 -4.819786	
3.69254	 -4.802661	
3.72581	 -4.799021	
3.75907	 -4.804665	
3.79234	 -4.801158	
3.8256	 -4.787811	
3.85887	 -4.781502	
3.89214	 -4.788106	
3.9254	 -4.800739	
3.95867	 -4.815870	
3.99194	 -4.830153	
4.0252	 -4.833796	
4.05847	 -4.824132	
4.09173	 -4.814700	
4.125	 -4.819894	
4.15827	 -4.839712	
4.19153	 -4.861630	
4.2248	 -4.873760	
4.25806	 -4.874541	
4.29133	 -4.867645	
4.3246	 -4.855068	
4.35786	 -4.840492	
4.39113	 -4.833735	
4.4244	 -4.841943	
4.45766	 -4.854976	
4.49093	 -4.857395	
4.52419	 -4.853700	
4.55746	 -4.855450	
4.59073	 -4.856401	
4.62399	 -4.846946	
4.65726	 -4.834188	
4.69052	 -4.831943	
4.72379	 -4.841455	
4.75706	 -4.847592	
4.79032	 -4.839444	
4.82359	 -4.826116	
4.85685	 -4.818513	
4.89012	 -4.812876	
4.92339	 -4.800656	
4.95665	 -4.780798	
4.98992	 -4.764081	
5.02319	 -4.765679	
5.05645	 -4.785201	
5.08972	 -4.805903	
5.12298	 -4.818517	
5.15625	 -4.822926	
5.18952	 -4.817439	
5.22278	 -4.808271	
5.25605	 -4.806145	
5.28931	 -4.811744	
5.32258	 -4.819081	
5.35585	 -4.820536	
5.38911	 -4.812069	
5.42238	 -4.799405	
5.45565	 -4.790859	
5.48891	 -4.789490	
5.52218	 -4.791857	
5.55544	 -4.790046	
5.58871	 -4.783880	
5.62198	 -4.784648	
5.65524	 -4.794376	
5.68851	 -4.798928	
5.72177	 -4.793223	
5.75504	 -4.787951	
5.78831	 -4.787223	
5.82157	 -4.785706	
5.85484	 -4.781285	
5.8881	 -4.776756	
5.92137	 -4.778012	
5.95464	 -4.787694	
5.9879	 -4.800993	
6.02117	 -4.814051	
6.05444	 -4.826378	
6.0877	 -4.835572	
6.12097	 -4.837886	
6.15423	 -4.831339	
6.1875	 -4.818674	
6.22077	 -4.805330	
6.25403	 -4.796140	
6.2873	 -4.796284	
6.32056	 -4.804928	
6.35383	 -4.816367	
6.3871	 -4.831541	
6.42036	 -4.848929	
6.45363	 -4.857719	
6.4869	 -4.859121	
6.52016	 -4.870361	
6.55343	 -4.894691	
6.58669	 -4.912742	
6.61996	 -4.909482	
6.65323	 -4.890359	
6.68649	 -4.872937	
6.71976	 -4.869454	
6.75302	 -4.875542	
6.78629	 -4.881390	
6.81956	 -4.883977	
6.85282	 -4.881877	
6.88609	 -4.875110	
6.91935	 -4.866621	
6.95262	 -4.858327	
6.98589	 -4.853850	
7.01915	 -4.851928	
7.05242	 -4.842257	
7.08569	 -4.825957	
7.11895	 -4.816477	
7.15222	 -4.816893	
7.18548	 -4.822089	
7.21875	 -4.831470	
7.25202	 -4.844514	
7.28528	 -4.854253	
7.31855	 -4.853082	
7.35181	 -4.843886	
7.38508	 -4.836460	
7.41835	 -4.830038	
7.45161	 -4.815908	
7.48488	 -4.798841	
7.51815	 -4.794088	
7.55141	 -4.803111	
7.58468	 -4.810261	
7.61794	 -4.807441	
7.65121	 -4.807265	
7.68448	 -4.820322	
7.71774	 -4.835323	
7.75101	 -4.837534	
7.78427	 -4.830060	
7.81754	 -4.820472	
7.85081	 -4.807075	
7.88407	 -4.791719	
7.91734	 -4.784484	
7.9506	 -4.789385	
7.98387	 -4.796529	
8.01714	 -4.794497	
8.0504	 -4.789701	
8.08367	 -4.796292	
8.11694	 -4.808912	
8.1502	 -4.811159	
8.18347	 -4.801323	
8.21673	 -4.788495	
8.25	 -4.779725	
8.28327	 -4.778366	
8.31653	 -4.782456	
8.3498	 -4.789767	
8.38306	 -4.803359	
8.41633	 -4.823532	
8.4496	 -4.841514	
8.48286	 -4.845172	
8.51613	 -4.829276	
8.5494	 -4.804266	
8.58266	 -4.786232	
8.61593	 -4.775937	
8.64919	 -4.769246	
8.68246	 -4.773129	
8.71573	 -4.788667	
8.74899	 -4.805877	
8.78226	 -4.818742	
8.81552	 -4.826143	
8.84879	 -4.829611	
8.88206	 -4.832104	
8.91532	 -4.832958	
8.94859	 -4.828564	
8.98185	 -4.817044	
9.01512	 -4.802845	
9.04839	 -4.794868	
9.08165	 -4.799235	
9.11492	 -4.818463	
9.14819	 -4.849941	
9.18145	 -4.880536	
9.21472	 -4.894379	
9.24798	 -4.887905	
9.28125	 -4.872030	
9.31452	 -4.863975	
9.34778	 -4.871040	
9.38105	 -4.878716	
9.41431	 -4.869560	
9.44758	 -4.847599	
9.48085	 -4.828007	
9.51411	 -4.816490	
9.54738	 -4.810407	
9.58065	 -4.805912	
9.61391	 -4.799969	
9.64718	 -4.795425	
9.68044	 -4.799871	
9.71371	 -4.813119	
9.74698	 -4.824178	
9.78024	 -4.824448	
9.81351	 -4.817108	
9.84677	 -4.813916	
9.88004	 -4.823942	
9.91331	 -4.843936	
9.94657	 -4.860517	
9.97984	 -4.860180	
10.0131	 -4.841300	
10.0464	 -4.818467	
10.0796	 -4.808529	
10.1129	 -4.812863	
10.1462	 -4.818223	
10.1794	 -4.811069	
10.2127	 -4.790990	
10.246	 -4.774099	
10.2792	 -4.773580	
10.3125	 -4.781601	
10.3458	 -4.783902	
10.379	 -4.778262	
10.4123	 -4.772343	
10.4456	 -4.774649	
10.4788	 -4.785934	
10.5121	 -4.798100	
10.5454	 -4.803159	
10.5786	 -4.799593	
10.6119	 -4.793682	
10.6452	 -4.794116	
10.6784	 -4.800218	
10.7117	 -4.804590	
10.745	 -4.805543	
10.7782	 -4.804352	
10.8115	 -4.804149	
10.8448	 -4.814350	
10.878	 -4.834894	
10.9113	 -4.849643	
10.9446	 -4.847793	
10.9778	 -4.831139	
11.0111	 -4.805880	
11.0444	 -4.782096	
11.0776	 -4.769618	
11.1109	 -4.772764	
11.1442	 -4.787442	
11.1774	 -4.797638	
11.2107	 -4.792453	
11.244	 -4.781335	
11.2772	 -4.775183	
11.3105	 -4.774519	
11.3437	 -4.780723	
11.377	 -4.795117	
11.4103	 -4.808545	
11.4435	 -4.808719	
11.4768	 -4.802755	
11.5101	 -4.813552	
11.5433	 -4.841038	
11.5766	 -4.853567	
11.6099	 -4.828342	
11.6431	 -4.776700	
11.6764	 -4.729352	
11.7097	 -4.711713	
11.7429	 -4.729235	
11.7762	 -4.767307	
11.8095	 -4.805427	
11.8427	 -4.828861	
11.876	 -4.833929	
11.9093	 -4.833630	
11.9425	 -4.838287	
11.9758	 -4.832919	
12.0091	 -4.806155	
